<svg stroke="currentColor" xmlns="http://www.w3.org/2000/svg" xmlns:xlink="http://www.w3.org/1999/xlink" style="display:none;">
  <!-- Git -->
  <symbol id="git" viewBox="0 0 24 24">
    <title>Git</title>
    <path d="M23.546 10.93 13.067.452a1.55 1.55 0 0 0-2.188 0L8.708 2.627l2.76 2.76a1.838 1.838 0 0 1 2.327 2.341l2.658 2.66a1.838 1.838 0 0 1 1.9 3.039 1.837 1.837 0 0 1-2.6 0 1.846 1.846 0 0 1-.404-1.996L12.86 8.955v6.525c.176.086.342.203.488.348a1.848 1.848 0 0 1 0 2.6 1.844 1.844 0 0 1-2.609 0 1.834 1.834 0 0 1 0-2.598c.182-.18.387-.316.605-.406V8.835a1.834 1.834 0 0 1-.996-2.41L7.636 3.7.45 10.881c-.6.605-.6 1.584 0 2.189l10.48 10.477a1.545 1.545 0 0 0 2.186 0l10.43-10.43a1.544 1.544 0 0 0 0-2.187"/>
  </symbol>

  <!-- Github -->
<symbol id="github" viewBox="0 0 24 24">
  <title>GitHub</title>
  <path
    fill="currentColor"
    d="M12 0C5.37 0 0 5.37 0 12c0 5.3 3.438 9.8 8.205 11.385.6.112.82-.26.82-.577v-2.17c-3.338.726-4.033-1.61-4.033-1.61-.546-1.387-1.333-1.756-1.333-1.756-1.09-.745.083-.73.083-.73 1.205.085 1.84 1.237 1.84 1.237 1.07 1.834 2.807 1.304 3.492.997.108-.788.418-1.305.762-1.604-2.665-.303-5.466-1.334-5.466-5.93 0-1.31.468-2.38 1.236-3.22-.124-.303-.535-1.523.117-3.176 0 0 1.008-.322 3.3 1.23a11.5 11.5 0 0 1 6.003 0c2.29-1.552 3.297-1.23 3.297-1.23.653 1.653.242 2.873.118 3.176.77.84 1.235 1.91 1.235 3.22 0 4.61-2.807 5.624-5.48 5.92.43.37.823 1.096.823 2.21v3.277c0 .32.218.694.825.576C20.565 21.796 24 17.295 24 12c0-6.63-5.37-12-12-12z"
  />
</symbol>


  <symbol id="message" viewBox="0 0 24 24">
    <title>Message</title>
    <path
        stroke-linecap="round"
        stroke-linejoin="round"
        d="M7.5 8.25h9m-9 3H12m-9.75 1.51c0 1.6 1.123 2.994 2.707 3.227
            1.129.166 2.27.293 3.423.379.35.026.67.21.865.501L12 21l2.755-4.133a1.14 1.14 0 0 1
            .865-.501 48.172 48.172 0 0 0 3.423-.379c1.584-.233 2.707-1.626
            2.707-3.228V6.741c0-1.602-1.123-2.995-2.707-3.228A48.394 48.394 0 0 0 12 3
            c-2.392 0-4.744.175-7.043.513C3.373 3.746 2.25 5.14 2.25 6.741v6.018Z"
      ></path>
  </symbol>

  <!-- javascript -->
  <symbol id="javascript" viewBox="0 0 24 24">
    <title>Usuario</title>
    <path d="M0 0h24v24H0V0zm22.034 18.276c-.175-1.095-.888-2.015-3.003-2.873-.736-.345-1.554-.585-1.797-1.14-.091-.33-.105-.51-.046-.705.15-.646.915-.84 1.515-.66.39.12.75.42.976.9 1.034-.676 1.034-.676 1.755-1.125-.27-.42-.404-.601-.586-.78-.63-.705-1.469-1.065-2.834-1.034l-.705.089c-.676.165-1.32.525-1.71 1.005-1.14 1.291-.811 3.541.569 4.471 1.365 1.02 3.361 1.244 3.616 2.205.24 1.17-.87 1.545-1.966 1.41-.811-.18-1.26-.586-1.755-1.336l-1.83 1.051c.21.48.45.689.81 1.109 1.74 1.756 6.09 1.666 6.871-1.004.029-.09.24-.705.074-1.65l.046.067zm-8.983-7.245h-2.248c0 1.938-.009 3.864-.009 5.805 0 1.232.063 2.363-.138 2.711-.33.689-1.18.601-1.566.48-.396-.196-.597-.466-.83-.855-.063-.105-.11-.196-.127-.196l-1.825 1.125c.305.63.75 1.172 1.324 1.517.855.51 2.004.675 3.207.405.783-.226 1.458-.691 1.811-1.411.51-.93.402-2.07.397-3.346.012-2.054 0-4.109 0-6.179l.004-.056z"/>
  </symbol>

  <!-- Menu (hamburger) -->
  <symbol id="menu" viewBox="0 0 24 24">
    <title>Menú</title>
    <path stroke="currentColor" stroke-linecap="round" stroke-linejoin="round" d="M3.75 6.75h16.5M3.75 12h16.5m-16.5 5.25h16.5"/>
  </symbol>

  <!-- Close (x) -->
  <symbol id="close" viewBox="0 0 24 24">
    <title>Cerrar</title>
    <path d="M6 6l12 12M18 6L6 18" stroke-linecap="round" stroke-width="2" stroke="currentColor" fill="none"/>
  </symbol>

  <symbol id="copy" viewBox="0 0 24 24">
  <title>Copy</title>
  <rect x="9" y="9" width="12" height="12" rx="2"
    stroke="currentColor" fill="none" stroke-width="1.5" />
  <rect x="3" y="3" width="12" height="12" rx="2"
    stroke="currentColor" fill="none" stroke-width="1.5" />
</symbol>


  <symbol id="check" viewBox="0 0 24 24">
    <path stroke="currentColor" stroke-linecap="round" stroke-linejoin="round" d="m4.5 12.75 6 6 9-13.5"/>
  </symbol>

  <!-- Linkedin -->
  <symbol id="linkedin" viewBox="0 0 24 24">
  <title>LinkedIn</title>
  <path
    fill="currentColor"
    d="M20.447 20.452h-3.554v-5.569c0-1.328-.027-3.037-1.852-3.037-1.853 0-2.136 1.445-2.136 2.939v5.667H9.35V9h3.414v1.561h.049c.476-.9 1.637-1.852 3.368-1.852 3.598 0 4.266 2.37 4.266 5.455v6.288zM5.337 7.433a2.062 2.062 0 1 1 0-4.124 2.062 2.062 0 0 1 0 4.124zM7.113 20.452H3.558V9h3.555v11.452zM22.225 0H1.771C.792 0 0 .774 0 1.729v20.542C0 23.227.792 24 1.771 24h20.451C23.2 24 24 23.227 24 22.271V1.729C24 .774 23.2 0 22.225 0z"
  />
</symbol>


  <symbol id="gmail" viewBox="0 0 24 24">
    <title>
      Gmail
    </title>
    <path d="M34.91 448.818h81.454V251L0 163.727V413.91c0 19.287 15.622 34.91 34.91 34.91z"/><path fill="#34a853" d="M395.636 448.818h81.455c19.287 0 34.909-15.622 34.909-34.909V163.727L395.636 251z"/><path fill="#fbbc04" d="M395.636 99.727V251L512 163.727v-46.545c0-43.142-49.25-67.782-83.782-41.891z"/></g><path fill="#ea4335" d="M116.364 251V99.727L256 204.455 395.636 99.727V251L256 355.727z"/><path fill="#c5221f" fill-rule="nonzero" d="M0 117.182v46.545L116.364 251V99.727L83.782 75.291C49.25 49.4 0 74.04 0 117.18z"/></g>
  </symbol>

  <symbol id="whatsapp" viewBox="0 0 24 24">
    <title>Whatsapp</title>
    <path fill-rule="evenodd" d="M307.546 52.566C273.709 18.684 228.706.017 180.756 0 81.951 0 1.538 80.404 1.504 179.235c-.017 31.594 8.242 62.432 23.928 89.609L0 361.736l95.024-24.925c26.179 14.285 55.659 21.805 85.655 21.814h.077c98.788 0 179.21-80.413 179.244-179.244.017-47.898-18.608-92.926-52.454-126.807v-.008Zm-126.79 275.788h-.06c-26.73-.008-52.952-7.194-75.831-20.765l-5.44-3.231-56.391 14.791 15.05-54.981-3.542-5.638c-14.912-23.721-22.793-51.139-22.776-79.286.035-82.14 66.867-148.973 149.051-148.973 39.793.017 77.198 15.53 105.328 43.695 28.131 28.157 43.61 65.596 43.593 105.398-.035 82.149-66.867 148.982-148.982 148.982v.008Zm81.719-111.577c-4.478-2.243-26.497-13.073-30.606-14.568-4.108-1.496-7.09-2.243-10.073 2.243-2.982 4.487-11.568 14.577-14.181 17.559-2.613 2.991-5.226 3.361-9.704 1.117-4.477-2.243-18.908-6.97-36.02-22.226-13.313-11.878-22.304-26.54-24.916-31.027-2.613-4.486-.275-6.91 1.959-9.136 2.011-2.011 4.478-5.234 6.721-7.847 2.244-2.613 2.983-4.486 4.478-7.469 1.496-2.991.748-5.603-.369-7.847-1.118-2.243-10.073-24.289-13.812-33.253-3.636-8.732-7.331-7.546-10.073-7.692-2.613-.13-5.595-.155-8.586-.155-2.991 0-7.839 1.118-11.947 5.604-4.108 4.486-15.677 15.324-15.677 37.361s16.047 43.344 18.29 46.335c2.243 2.991 31.585 48.225 76.51 67.632 10.684 4.615 19.029 7.374 25.535 9.437 10.727 3.412 20.49 2.931 28.208 1.779 8.604-1.289 26.498-10.838 30.228-21.298 3.73-10.46 3.73-19.433 2.613-21.298-1.117-1.865-4.108-2.991-8.586-5.234l.008-.017Z" clip-rule="evenodd"/>
  </symbol>


  <symbol id="typescript" viewBox="0 0 50 50">
    <title>Typescript</title>
    <path d="M1.125 0C.502 0 0 .502 0 1.125v21.75C0 23.498.502 24 1.125 24h21.75c.623 0 1.125-.502 1.125-1.125V1.125C24 .502 23.498 0 22.875 0zm17.363 9.75c.612 0 1.154.037 1.627.111a6.38 6.38 0 0 1 1.306.34v2.458a3.95 3.95 0 0 0-.643-.361 5.093 5.093 0 0 0-.717-.26 5.453 5.453 0 0 0-1.426-.2c-.3 0-.573.028-.819.086a2.1 2.1 0 0 0-.623.242c-.17.104-.3.229-.393.374a.888.888 0 0 0-.14.49c0 .196.053.373.156.529.104.156.252.304.443.444s.423.276.696.41c.273.135.582.274.926.416.47.197.892.407 1.266.628.374.222.695.473.963.753.268.279.472.598.614.957.142.359.214.776.214 1.253 0 .657-.125 1.21-.373 1.656a3.033 3.033 0 0 1-1.012 1.085 4.38 4.38 0 0 1-1.487.596c-.566.12-1.163.18-1.79.18a9.916 9.916 0 0 1-1.84-.164 5.544 5.544 0 0 1-1.512-.493v-2.63a5.033 5.033 0 0 0 3.237 1.2c.333 0 .624-.03.872-.09.249-.06.456-.144.623-.25.166-.108.29-.234.373-.38a1.023 1.023 0 0 0-.074-1.089 2.12 2.12 0 0 0-.537-.5 5.597 5.597 0 0 0-.807-.444 27.72 27.72 0 0 0-1.007-.436c-.918-.383-1.602-.852-2.053-1.405-.45-.553-.676-1.222-.676-2.005 0-.614.123-1.141.369-1.582.246-.441.58-.804 1.004-1.089a4.494 4.494 0 0 1 1.47-.629 7.536 7.536 0 0 1 1.77-.201zm-15.113.188h9.563v2.166H9.506v9.646H6.789v-9.646H3.375z"/>
  </symbol>
  
  <symbol id="python" viewBox="0 0 50 50">
    <title>Python</title>
    <path fill="url(#a)" d="M31.885 16c-8.124 0-7.617 3.523-7.617 3.523l.01 3.65h7.752v1.095H21.197S16 23.678 16 31.876c0 8.196 4.537 7.906 4.537 7.906h2.708v-3.804s-.146-4.537 4.465-4.537h7.688s4.32.07 4.32-4.175v-7.019S40.374 16 31.885 16zm-4.275 2.454a1.394 1.394 0 1 1 0 2.79 1.393 1.393 0 0 1-1.395-1.395c0-.771.624-1.395 1.395-1.395z"/><path fill="url(#b)" d="M32.115 47.833c8.124 0 7.617-3.523 7.617-3.523l-.01-3.65H31.97v-1.095h10.832S48 40.155 48 31.958c0-8.197-4.537-7.906-4.537-7.906h-2.708v3.803s.146 4.537-4.465 4.537h-7.688s-4.32-.07-4.32 4.175v7.019s-.656 4.247 7.833 4.247zm4.275-2.454a1.393 1.393 0 0 1-1.395-1.395 1.394 1.394 0 1 1 1.395 1.395z"/><defs><linearGradient id="a" x1="19.075" x2="34.898" y1="18.782" y2="34.658" gradientUnits="userSpaceOnUse"><stop stop-color="#387EB8"/><stop offset="1" stop-color="#366994"/></linearGradient><linearGradient id="b" x1="28.809" x2="45.803" y1="28.882" y2="45.163" gradientUnits="userSpaceOnUse"><stop stop-color="#FFE052"/><stop offset="1" stop-color="#FFC331"/></linearGradient></defs>
  </symbol>

  <symbol id="react" viewBox="0 0 569 512">
    <title>React</title>
    <path d="M14.23 12.004a2.236 2.236 0 0 1-2.235 2.236 2.236 2.236 0 0 1-2.236-2.236 2.236 2.236 0 0 1 2.235-2.236 2.236 2.236 0 0 1 2.236 2.236zm2.648-10.69c-1.346 0-3.107.96-4.888 2.622-1.78-1.653-3.542-2.602-4.887-2.602-.41 0-.783.093-1.106.278-1.375.793-1.683 3.264-.973 6.365C1.98 8.917 0 10.42 0 12.004c0 1.59 1.99 3.097 5.043 4.03-.704 3.113-.39 5.588.988 6.38.32.187.69.275 1.102.275 1.345 0 3.107-.96 4.888-2.624 1.78 1.654 3.542 2.603 4.887 2.603.41 0 .783-.09 1.106-.275 1.374-.792 1.683-3.263.973-6.365C22.02 15.096 24 13.59 24 12.004c0-1.59-1.99-3.097-5.043-4.032.704-3.11.39-5.587-.988-6.38a2.167 2.167 0 0 0-1.092-.278zm-.005 1.09v.006c.225 0 .406.044.558.127.666.382.955 1.835.73 3.704-.054.46-.142.945-.25 1.44a23.476 23.476 0 0 0-3.107-.534A23.892 23.892 0 0 0 12.769 4.7c1.592-1.48 3.087-2.292 4.105-2.295zm-9.77.02c1.012 0 2.514.808 4.11 2.28-.686.72-1.37 1.537-2.02 2.442a22.73 22.73 0 0 0-3.113.538 15.02 15.02 0 0 1-.254-1.42c-.23-1.868.054-3.32.714-3.707.19-.09.4-.127.563-.132zm4.882 3.05c.455.468.91.992 1.36 1.564-.44-.02-.89-.034-1.345-.034-.46 0-.915.01-1.36.034.44-.572.895-1.096 1.345-1.565zM12 8.1c.74 0 1.477.034 2.202.093.406.582.802 1.203 1.183 1.86.372.64.71 1.29 1.018 1.946-.308.655-.646 1.31-1.013 1.95-.38.66-.773 1.288-1.18 1.87a25.64 25.64 0 0 1-4.412.005 26.64 26.64 0 0 1-1.183-1.86c-.372-.64-.71-1.29-1.018-1.946a25.17 25.17 0 0 1 1.013-1.954c.38-.66.773-1.286 1.18-1.868A25.245 25.245 0 0 1 12 8.098zm-3.635.254c-.24.377-.48.763-.704 1.16-.225.39-.435.782-.635 1.174-.265-.656-.49-1.31-.676-1.947.64-.15 1.315-.283 2.015-.386zm7.26 0c.695.103 1.365.23 2.006.387-.18.632-.405 1.282-.66 1.933a25.952 25.952 0 0 0-1.345-2.32zm3.063.675c.484.15.944.317 1.375.498 1.732.74 2.852 1.708 2.852 2.476-.005.768-1.125 1.74-2.857 2.475-.42.18-.88.342-1.355.493a23.966 23.966 0 0 0-1.1-2.98c.45-1.017.81-2.01 1.085-2.964zm-13.395.004c.278.96.645 1.957 1.1 2.98a23.142 23.142 0 0 0-1.086 2.964c-.484-.15-.944-.318-1.37-.5-1.732-.737-2.852-1.706-2.852-2.474 0-.768 1.12-1.742 2.852-2.476.42-.18.88-.342 1.356-.494zm11.678 4.28c.265.657.49 1.312.676 1.948-.64.157-1.316.29-2.016.39a25.819 25.819 0 0 0 1.341-2.338zm-9.945.02c.2.392.41.783.64 1.175.23.39.465.772.705 1.143a22.005 22.005 0 0 1-2.006-.386c.18-.63.406-1.282.66-1.933zM17.92 16.32c.112.493.2.968.254 1.423.23 1.868-.054 3.32-.714 3.708-.147.09-.338.128-.563.128-1.012 0-2.514-.807-4.11-2.28.686-.72 1.37-1.536 2.02-2.44 1.107-.118 2.154-.3 3.113-.54zm-11.83.01c.96.234 2.006.415 3.107.532.66.905 1.345 1.727 2.035 2.446-1.595 1.483-3.092 2.295-4.11 2.295a1.185 1.185 0 0 1-.553-.132c-.666-.38-.955-1.834-.73-3.703.054-.46.142-.944.25-1.438zm4.56.64c.44.02.89.034 1.345.034.46 0 .915-.01 1.36-.034-.44.572-.895 1.095-1.345 1.565-.455-.47-.91-.993-1.36-1.565z"/>
  </symbol>

</svg>
